<?xml version="1.0" encoding="UTF-8"?>
<svg width="683px" height="683px" viewBox="0 0 683 683" version="1.1" xmlns="http://www.w3.org/2000/svg" xmlns:xlink="http://www.w3.org/1999/xlink">
    <title>Group</title>
    <g id="Todos-los-flujos---Actual" stroke="none" stroke-width="1" fill="none" fill-rule="evenodd" stroke-linecap="round" stroke-linejoin="round">
        <g id="Group" transform="translate(13.331633, 13.334007)" fill-rule="nonzero" stroke="#9E9CC7" stroke-width="26.6666">
            <g transform="translate(328.000680, 328.000013) rotate(-180.000000) translate(-328.000680, -328.000013) ">
                <path d="M614.554797,263.767674 C640.754731,303.654241 656.000027,351.378122 656.000027,402.667327 C656.000027,542.578977 542.578977,656.000027 402.667327,656.000027 C262.755676,656.000027 149.334627,542.578977 149.334627,402.667327 C149.334627,262.755676 262.755676,149.334627 402.667327,149.334627 C444.359222,149.334627 483.695124,159.409268 518.381704,177.250557" id="Path"></path>
                <path d="M309.539559,579.689551 C337.35549,594.353514 369.039411,602.666827 402.66866,602.666827 C513.124384,602.666827 602.66816,513.123051 602.66816,402.667327 C602.66816,359.564768 589.032194,319.647534 565.840252,286.992949 M414.900629,203.037159 C410.116641,202.694493 407.540648,202.667827 402.66866,202.667827 C292.211603,202.667827 202.66916,292.210269 202.66916,402.667327 C202.66916,436.293909 210.979806,467.979163 225.643769,495.789761" id="Shape"></path>
                <path d="M252.621035,197.085174 L76.2561427,13.0389674 C58.8708528,-4.34632247 30.4242573,-4.34632247 13.0389674,13.0389674 C-4.34632247,30.4229239 -4.34632247,58.8708528 13.0389674,76.2561427 L195.86651,251.465038" id="Path"></path>
                <line x1="147.199965" y1="197.346507" x2="197.349173" y2="147.197299" id="Path" fill="#9E9CC7"></line>
                <line x1="335.996827" y1="402.667327" x2="336.00616" y2="402.667327" id="Path" fill="#9E9CC7"></line>
                <line x1="402.663327" y1="402.667327" x2="402.67266" y2="402.667327" id="Path" fill="#9E9CC7"></line>
                <line x1="469.329827" y1="402.667327" x2="469.33916" y2="402.667327" id="Path" fill="#9E9CC7"></line>
                <path d="M448.275213,177.27989 L626.001435,177.27989 C642.501394,177.27989 656.00136,190.779856 656.00136,207.279815 C656.00136,223.779774 642.501394,237.27974 626.001435,237.27974 C624.412106,258.58902 606.62015,275.383645 584.904204,275.383645 C581.101547,275.383645 577.41889,274.866313 573.922899,273.900982 C562.766926,292.476935 542.424311,304.906238 519.179035,304.906238 C483.935123,304.906238 455.365862,276.336976 455.365862,241.093064 L448.484545,241.093064 C430.935256,241.093064 416.577959,226.735766 416.577959,209.186477 C416.577959,191.843854 430.869923,177.27989 448.275213,177.27989 Z" id="Path"></path>
                <path d="M218.893119,579.145552 C211.747804,591.382855 198.475837,599.606834 183.281208,599.606834 C179.477218,599.606834 175.795894,599.089502 172.299903,598.124171 C161.142597,616.700125 140.801315,629.129427 117.556039,629.129427 C82.3121276,629.129427 53.7428656,600.560165 53.7428656,565.316253 L46.8615495,565.316253 C29.3109267,565.316253 14.9536293,550.958956 14.9536293,533.409666 C14.9536293,516.067043 29.2469269,501.50308 46.6508834,501.50308 L167.094582,501.50308" id="Path"></path>
                <line x1="261.237014" y1="544.088306" x2="261.246347" y2="544.088306" id="Path" fill="#9E9CC7"></line>
            </g>
        </g>
    </g>
</svg>